<svg width="202" height="19" viewBox="0 0 202 19" fill="none" xmlns="http://www.w3.org/2000/svg">
<path d="M42.494 17.3177C41.9244 17.3177 41.4971 17.3177 41.0699 17.1778C40.785 17.1778 40.6426 17.0378 40.3578 16.8979C40.073 16.618 39.9305 16.3381 39.7881 16.0583C39.6457 15.7784 39.6457 15.3586 39.5033 14.9387C39.5033 14.6588 39.5033 14.379 39.3609 14.0991C39.2185 13.1195 39.0761 12.1399 38.9336 11.1603C38.7912 10.1807 38.6488 9.34108 38.5064 8.36149C38.364 6.82214 38.0792 5.28278 37.9367 3.74343C37.7943 2.76384 37.6519 1.92419 37.5095 0.944603C37.5095 0.804662 37.5095 0.664721 37.5095 0.52478C37.5095 0.384838 37.5095 0.244897 37.3671 0.104956C37.2247 -0.0349853 37.0822 -0.0349853 36.9398 0.104956L36.7974 0.244897C36.3702 1.08454 35.9429 1.78425 35.5157 2.6239C34.946 3.60349 34.3764 4.72302 33.8067 5.70261C32.9522 7.24196 32.0977 8.78131 31.2432 10.4606C30.816 11.1603 30.5311 11.86 30.1039 12.4198C29.8191 12.9796 29.5342 13.5393 29.2494 14.0991C29.2494 14.0991 29.2494 14.239 29.107 14.239C28.9646 14.379 28.8222 14.379 28.8222 14.239C28.5373 13.8192 28.2525 13.2594 28.1101 12.8396C27.5404 11.7201 26.8284 10.6005 26.2587 9.62096C25.5466 8.22155 24.8345 6.96208 24.1225 5.70261C23.5528 4.58308 22.8407 3.46355 22.2711 2.34402C21.9862 1.78425 21.559 1.22449 21.2742 0.664721C21.1317 0.52478 20.9893 0.244897 20.8469 0.104956C20.5621 -0.0349853 20.4197 -0.0349853 20.2773 0.104956C20.2773 0.244897 20.1348 0.384838 20.1348 0.52478C19.9924 1.50437 19.85 2.48396 19.7076 3.46355C19.4228 5.70261 19.1379 8.08161 18.8531 10.3207C18.7107 11.4402 18.5683 12.5597 18.4259 13.6793C18.2834 14.379 18.2834 14.9387 18.141 15.6384C18.141 15.9183 17.9986 16.1982 17.9986 16.4781C17.8562 16.8979 17.5714 17.0378 17.1441 17.1778C17.0017 17.1778 16.7169 17.1778 16.5745 17.1778C16.432 17.1778 16.432 17.1778 16.2896 17.1778C16.1472 17.1778 16.1472 17.1778 16.1472 17.3177C16.1472 17.4577 16.1472 17.4577 16.2896 17.4577C16.432 17.4577 16.432 17.4577 16.5745 17.4577C16.8593 17.4577 17.0017 17.4577 17.2865 17.4577C17.8562 17.4577 18.4259 17.4577 18.7107 17.3177C19.4228 17.3177 19.85 17.3177 20.2773 17.3177C20.5621 17.3177 20.8469 17.3177 21.1317 17.3177C21.2742 17.3177 21.4166 17.3177 21.4166 17.1778C21.559 17.1778 21.559 16.8979 21.4166 16.8979C21.2742 16.8979 21.2742 16.8979 21.1317 16.8979C20.8469 16.8979 20.5621 16.8979 20.2773 16.758C19.85 16.618 19.7076 16.4781 19.7076 16.0583C19.7076 15.3586 19.7076 14.7988 19.85 14.0991C19.85 13.5393 19.9924 12.8396 19.9924 12.2798C19.9924 11.7201 20.1348 11.1603 20.1348 10.6005C20.2773 9.7609 20.2773 8.92125 20.4197 8.22155C20.5621 7.10202 20.5621 6.12243 20.7045 5.0029V4.86296C20.7045 4.86296 20.7045 4.72302 20.8469 4.72302H20.9893L21.1317 4.86296C21.2742 5.14284 21.4166 5.42272 21.559 5.70261C22.2711 7.10202 22.9831 8.36149 23.8376 9.7609C24.2649 10.4606 24.6921 11.3003 25.1194 12C25.689 13.1195 26.4011 14.0991 26.9708 15.2186C27.2556 15.6384 27.5404 16.1982 27.8253 16.618C27.9677 16.758 27.9677 16.8979 28.1101 17.0378C28.2525 17.1778 28.3949 17.1778 28.6798 17.0378L28.8222 16.8979C28.9646 16.758 29.107 16.4781 29.107 16.3381C29.8191 14.9387 30.6736 13.5393 31.3856 12.1399C31.9553 11.0204 32.6674 9.90084 33.237 8.64137C33.6643 7.94166 34.0915 7.10202 34.3764 6.40231C34.6612 5.84255 34.946 5.28278 35.2308 4.72302C35.2308 4.72302 35.2308 4.58308 35.3733 4.58308C35.5157 4.44313 35.5157 4.58308 35.6581 4.58308C35.6581 4.72302 35.6581 4.72302 35.6581 4.86296C35.8005 5.84255 35.8005 6.82213 35.9429 7.80172C36.0853 9.0612 36.2278 10.3207 36.3702 11.5801C36.5126 12.6997 36.655 13.8192 36.7974 14.9387C36.7974 15.3586 36.9398 15.7784 36.9398 16.0583C36.9398 16.1982 36.9398 16.4781 36.7974 16.618C36.655 16.758 36.655 16.8979 36.9398 17.0378H37.0822C37.3671 17.0378 37.6519 17.0378 37.7943 17.0378C38.9336 17.0378 40.073 17.1778 41.2123 17.1778C41.4971 17.1778 41.6395 17.1778 41.9244 17.1778C42.0668 17.1778 42.0668 17.1778 42.2092 17.1778C42.3516 17.1778 42.3516 17.0378 42.3516 17.0378C42.7788 17.3177 42.6364 17.3177 42.494 17.3177Z" fill="white"/>
<path d="M201.287 17.4567H201.145C201.002 17.4567 201.002 17.4567 200.86 17.4567C200.006 17.4567 199.293 17.3168 198.581 16.757C198.012 16.4771 197.584 16.0573 197.157 15.6375C196.16 14.6579 195.163 13.5384 194.166 12.5588C193.454 11.7191 192.742 11.0194 192.03 10.1798C191.745 9.89988 191.745 9.89988 192.03 9.62C192.885 8.92029 193.739 8.08064 194.309 7.10106C194.879 6.26141 195.021 5.28182 194.879 4.30223C194.879 4.16229 194.879 4.02235 194.736 3.88241C194.309 2.48299 193.312 1.50341 191.745 1.08358C191.033 0.8037 190.179 0.8037 189.467 0.663759C188.185 0.523817 186.903 0.663759 185.622 0.663759C184.767 0.663759 183.913 0.663759 183.058 0.663759C182.631 0.663759 182.061 0.663759 181.634 0.663759H181.492C181.349 0.663759 181.349 0.8037 181.349 0.8037C181.349 0.943641 181.349 0.943641 181.492 0.943641C181.634 0.943641 181.634 0.943641 181.776 0.943641C182.061 0.943641 182.204 0.943641 182.488 0.943641C182.631 0.943641 182.773 0.943641 182.916 1.08358C183.201 1.22352 183.485 1.36346 183.485 1.64335C183.485 1.78329 183.628 1.92323 183.628 2.06317C183.628 2.62294 183.628 3.04276 183.628 3.60252C183.628 5.28182 183.628 7.10106 183.628 8.78035C183.628 10.5996 183.628 12.4188 183.628 14.2381C183.628 14.9378 183.628 15.6375 183.485 16.1972C183.485 16.3372 183.343 16.4771 183.343 16.6171C183.201 16.8969 183.058 17.0369 182.773 17.1768C182.631 17.1768 182.346 17.1768 182.204 17.1768C182.061 17.1768 182.061 17.1768 181.919 17.1768L181.776 17.3168C181.776 17.4567 181.776 17.4567 181.919 17.4567C182.061 17.4567 182.061 17.4567 182.204 17.4567C182.916 17.4567 183.628 17.4567 184.34 17.4567C184.625 17.4567 184.909 17.4567 185.337 17.4567C186.191 17.4567 187.188 17.4567 188.043 17.4567C188.185 17.4567 188.185 17.4567 188.327 17.4567C188.47 17.4567 188.47 17.3168 188.47 17.3168C188.47 17.1768 188.47 17.1768 188.327 17.1768C188.185 17.1768 188.185 17.1768 188.043 17.1768C187.758 17.1768 187.331 17.1768 187.046 17.0369C186.618 16.8969 186.191 16.6171 186.191 16.1972C186.191 16.0573 186.049 15.7774 186.049 15.6375C186.049 14.7978 185.906 14.0981 185.906 13.2585C185.906 12.4188 185.906 11.5792 185.906 10.5996C185.906 10.4596 185.906 10.4596 185.906 10.3197C185.906 10.1798 186.049 10.1798 186.191 10.0398C186.334 10.0398 186.334 10.0398 186.476 10.0398C186.618 10.0398 186.903 10.0398 187.046 10.0398C187.758 10.0398 188.612 10.0398 189.324 10.0398C189.609 10.0398 189.752 10.0398 189.894 10.3197C190.036 10.4596 190.179 10.5996 190.179 10.7395C191.176 11.8591 192.173 12.9786 193.027 14.0981C193.597 14.7978 194.309 15.4975 195.021 16.1972C195.875 16.8969 196.872 17.4567 198.012 17.4567C199.009 17.4567 200.006 17.4567 201.145 17.4567H201.287H201.43C201.43 17.5966 201.43 17.4567 201.287 17.4567ZM190.179 9.48006C189.609 9.62 189.04 9.62 188.47 9.62C187.9 9.62 187.331 9.48006 186.761 9.48006C186.618 9.48006 186.334 9.48006 186.191 9.34012C185.906 9.20017 185.764 9.06023 185.764 8.78035C185.764 7.66082 185.764 6.54129 185.764 5.28182C185.764 4.16229 185.764 3.04276 185.764 1.92323V1.78329C185.764 1.64335 185.906 1.50341 186.049 1.50341C186.049 1.50341 186.191 1.50341 186.334 1.50341C187.046 1.36346 187.9 1.36346 188.755 1.50341C189.609 1.64335 190.464 1.92323 191.176 2.48299C191.888 3.04276 192.458 3.88241 192.6 4.862C192.742 5.5617 192.742 6.26141 192.6 6.96111C192.458 7.66082 192.173 8.36053 191.745 8.92029C191.176 9.06023 190.749 9.34012 190.179 9.48006Z" fill="white"/>
<path d="M65.9924 17.3177C65.85 17.3177 65.85 17.3177 65.7076 17.3177C64.8531 17.3177 64.141 17.0378 63.5713 16.3381C63.4289 16.1982 63.2865 16.0583 63.2865 15.9183C63.0017 15.4985 62.7169 14.9387 62.432 14.5189C61.8624 13.2594 61.2927 12.1399 60.723 10.8804C60.1534 9.48102 59.4413 8.08161 58.8716 6.68219C58.4444 5.70261 58.0172 4.86296 57.5899 3.88337C57.3051 3.3236 57.1627 2.90378 56.8778 2.34402C56.593 1.64431 56.1658 0.944603 55.8809 0.244897C55.8809 0.244897 55.8809 0.104956 55.7385 0.104956C55.5961 -0.0349853 55.3113 -0.0349853 55.3113 0.104956C55.3113 0.104956 55.3113 0.244897 55.1688 0.244897C54.884 0.804662 54.5992 1.36443 54.4568 1.92419C54.0295 2.6239 53.7447 3.46355 53.3175 4.16325C52.8902 5.14284 52.463 5.98249 52.1781 6.96208C51.7509 8.08161 51.1812 9.20114 50.754 10.3207C50.4692 10.8804 50.1843 11.5801 50.0419 12.1399C49.7571 12.8396 49.4722 13.5393 49.045 14.239C48.9026 14.6588 48.6178 15.2186 48.4753 15.6384C48.3329 15.9183 48.1905 16.1982 47.9057 16.4781C47.6208 16.8979 47.0512 17.1778 46.6239 17.1778C46.3391 17.1778 46.1967 17.1778 45.9119 17.1778C45.7694 17.1778 45.7694 17.1778 45.627 17.1778L45.4846 17.3177C45.4846 17.3177 45.4846 17.4577 45.627 17.4577C45.7694 17.4577 45.7694 17.5976 45.9119 17.5976C46.1967 17.5976 46.6239 17.5976 46.9088 17.5976C47.9057 17.5976 48.7602 17.4577 49.7571 17.5976C50.1843 17.5976 50.6116 17.5976 50.8964 17.5976C51.0388 17.5976 51.0388 17.5976 51.1812 17.5976C51.3236 17.5976 51.3236 17.4577 51.3236 17.4577C51.3236 17.3177 51.3236 17.3177 51.1812 17.3177C51.0388 17.3177 51.0388 17.3177 50.8964 17.3177C50.754 17.3177 50.6116 17.3177 50.3267 17.1778C50.0419 17.0378 49.8995 16.8979 49.8995 16.618C49.8995 16.4781 49.8995 16.3381 50.0419 16.1982C50.1843 15.6384 50.3267 15.2186 50.6116 14.6588C50.754 14.239 51.0388 13.6793 51.1812 13.2594C51.3236 12.8396 51.6085 12.2798 51.7509 11.86C51.8933 11.5801 51.8933 11.4402 52.3205 11.4402C52.3205 11.4402 57.5899 11.4402 58.0172 11.4402C58.4444 11.4402 58.4444 11.5801 58.5868 11.86C58.5868 12 60.1534 15.2186 60.8655 16.758V16.8979C61.0079 17.1778 60.8655 17.1778 60.723 17.3177C60.723 17.3177 60.5806 17.3177 60.5806 17.4577C60.4382 17.5976 60.4382 17.7376 60.5806 17.7376H60.723C61.1503 17.7376 61.5775 17.7376 62.1472 17.7376C63.2865 17.7376 64.4258 17.7376 65.5652 17.7376C65.7076 17.7376 65.7076 17.7376 65.85 17.7376H65.9924C66.1348 17.5976 66.1348 17.4577 65.9924 17.3177C66.1348 17.3177 65.9924 17.3177 65.9924 17.3177ZM57.5899 10.3207C56.7354 10.3207 53.4599 10.3207 52.7478 10.3207C52.3205 10.3207 52.3205 10.3207 52.463 9.90084C52.7478 9.20114 53.175 8.22155 53.4599 7.52184C53.7447 6.68219 54.1719 5.84255 54.4568 4.86296C54.5992 4.58308 54.5992 4.30319 54.7416 4.02331C54.7416 3.88337 54.884 3.88337 54.884 3.74343C55.0264 3.60349 55.1689 3.60349 55.3113 3.74343L55.4537 3.88337C56.1658 5.42272 56.7354 6.96208 57.4475 8.50143C57.5899 8.92125 57.8747 9.48102 58.0172 9.90084C58.0172 10.3207 58.0172 10.3207 57.5899 10.3207Z" fill="white"/>
<path d="M176.222 14.8032V14.9431C176.222 15.0831 176.222 15.223 176.222 15.223C176.08 15.7828 175.795 16.0627 175.368 16.3426C175.083 16.4825 174.798 16.6224 174.371 16.6224C173.374 16.7624 172.234 16.7624 171.238 16.7624C170.953 16.7624 170.525 16.7624 170.241 16.6224C169.671 16.4825 169.244 16.0627 169.101 15.5029C169.101 15.223 169.101 14.9431 169.101 14.6633C169.101 12.844 169.101 11.1647 169.101 9.3455V9.20556C169.101 9.06561 169.244 8.92567 169.386 8.92567C169.386 8.92567 171.095 8.92567 171.95 8.92567C172.234 8.92567 172.662 8.92567 172.947 8.92567C173.374 8.92567 173.659 9.06562 174.086 9.06562C174.371 9.20556 174.655 9.3455 174.655 9.76532C174.655 9.90526 174.655 10.0452 174.655 10.1851V10.3251C174.655 10.465 174.656 10.465 174.798 10.465C174.94 10.465 174.94 10.465 174.94 10.3251C174.94 10.1851 174.94 10.1851 174.94 10.0452C174.94 9.76532 174.94 9.48544 174.94 9.20556C175.083 8.64579 175.083 8.08603 175.225 7.52626C175.225 7.38632 175.225 7.24638 175.083 7.10644C174.94 7.10644 174.798 7.10644 174.798 7.24638C174.513 7.52626 174.228 7.6662 173.943 7.6662C173.374 7.6662 172.662 7.6662 172.092 7.80614C171.522 7.80614 170.953 7.80614 170.383 7.80614C169.956 7.80614 169.529 7.80614 169.244 7.80614C168.959 7.80614 168.816 7.6662 168.816 7.38632C168.816 7.24638 168.816 7.10644 168.816 6.9665C168.816 5.42714 168.816 3.74785 168.816 2.20849C168.816 1.92861 168.816 1.78867 168.816 1.50879C168.816 1.2289 168.959 1.08896 169.244 1.08896H169.386C170.241 1.08896 171.38 1.08896 172.092 1.08896C172.804 1.08896 173.231 1.2289 173.943 1.36885C174.086 1.36885 174.228 1.36885 174.228 1.50879C174.513 1.64873 174.798 1.92861 174.798 2.20849C174.798 2.34843 174.798 2.48838 174.798 2.62832C174.798 2.76826 174.798 2.76826 174.798 2.9082L174.94 3.04814C175.083 3.04814 175.083 3.04814 175.083 2.9082C175.083 2.76826 175.083 2.76826 175.225 2.62832C175.225 2.48838 175.225 2.20849 175.225 2.06855C175.225 1.50879 175.368 1.08896 175.51 0.529199C175.51 0.529199 175.51 0.389258 175.51 0.249316C175.51 0.109375 175.368 0.109375 175.225 0.109375H175.083C174.94 0.109375 174.798 0.249316 174.655 0.249316C174.086 0.389258 173.516 0.389258 172.947 0.389258C171.095 0.389258 169.244 0.389258 167.25 0.389258C166.68 0.389258 166.111 0.389258 165.541 0.389258C165.114 0.389258 164.686 0.389258 164.259 0.389258C164.117 0.389258 163.974 0.529199 163.974 0.529199C163.974 0.66914 164.117 0.66914 164.259 0.66914C164.402 0.66914 164.544 0.66914 164.829 0.66914C164.971 0.66914 165.256 0.66914 165.399 0.809081C165.683 0.949023 165.968 1.08896 166.111 1.50879C166.111 1.64873 166.253 1.78867 166.253 1.92861C166.253 2.34843 166.395 2.76826 166.395 3.32802C166.395 6.12685 166.395 8.78573 166.395 11.5846C166.395 12.5641 166.395 13.5437 166.395 14.5233C166.395 15.223 166.253 15.9227 166.111 16.4825C166.111 16.6224 166.111 16.7624 165.968 16.9023C165.826 17.1822 165.683 17.3221 165.399 17.3221C165.256 17.3221 165.114 17.3221 164.829 17.3221C164.686 17.3221 164.686 17.3221 164.544 17.3221C164.402 17.3221 164.402 17.4621 164.402 17.4621C164.402 17.602 164.544 17.602 164.686 17.602C164.829 17.602 164.829 17.602 164.971 17.602C165.683 17.602 166.395 17.602 167.25 17.602C168.104 17.602 169.101 17.602 169.956 17.602C171.238 17.602 172.377 17.602 173.659 17.602H173.801C174.228 17.602 174.655 17.602 175.083 17.602C175.652 17.602 175.795 17.4621 175.937 16.9023C176.08 16.2026 176.08 15.6429 176.222 14.9431C176.222 14.8032 176.222 14.8032 176.222 14.6633C176.364 14.6633 176.222 14.6633 176.222 14.8032Z" fill="white"/>
<path d="M9.31135 9.76159C8.45686 9.06188 7.74478 8.50211 6.74787 7.94235C6.0358 7.52253 5.32372 7.1027 4.61165 6.68288C4.1844 6.26305 3.61474 5.98317 3.1875 5.42341C2.90267 5.14352 2.61783 4.7237 2.47542 4.30388C2.04817 3.18435 2.61783 2.06482 3.47233 1.50505C4.04199 1.22517 4.61165 1.08523 5.18131 0.945287C5.89338 0.805346 6.46304 0.945287 7.17512 0.945287C7.74478 1.22517 8.31444 1.36511 8.8841 1.64499C9.31135 1.78493 9.45376 2.06482 9.59618 2.48464C9.59618 2.76452 9.73859 3.04441 9.73859 3.18435C9.73859 3.32429 9.73859 3.32429 9.88101 3.46423C9.88101 3.60417 10.0234 3.60417 10.0234 3.60417L10.1658 3.46423C10.1658 3.32429 10.1658 3.32429 10.1658 3.18435C10.1658 2.90446 10.1658 2.62458 10.1658 2.3447C10.1658 1.92488 10.1658 1.50505 10.3083 1.08523C10.3083 0.805346 10.3083 0.665405 9.88101 0.665405C9.73859 0.665405 9.59618 0.665405 9.31135 0.665405C8.8841 0.385522 8.31444 0.245581 7.74478 0.245581C7.0327 0.10564 6.32063 0.10564 5.46614 0.245581C4.61165 0.385522 3.75716 0.525463 2.90267 0.805346C2.19059 1.08523 1.62093 1.50505 1.19368 2.06482C0.624023 2.90446 0.481608 3.74411 0.481608 4.58376C0.481608 5.42341 0.766438 6.12311 1.3361 6.82282C1.47851 6.96276 1.62093 7.1027 1.76334 7.24264C2.333 7.94235 3.04508 8.36217 3.75716 8.92194C4.46923 9.34176 5.18131 9.90153 5.89338 10.3214C6.32063 10.6012 6.89029 11.0211 7.31753 11.3009C7.74478 11.7208 8.17203 12.0006 8.45686 12.4205C9.45376 13.8199 8.8841 15.4992 7.74478 16.3388C7.17512 16.7586 6.46304 16.8986 5.75097 17.0385C5.18131 17.0385 4.75406 17.0385 4.1844 17.0385C3.47233 17.0385 2.90267 16.8986 2.333 16.6187C1.76334 16.3388 1.3361 16.0589 1.05127 15.4992C0.766438 15.0794 0.766438 14.6595 0.766438 14.2397C0.766438 14.0998 0.766438 14.0998 0.766438 13.9598C0.766438 13.8199 0.624023 13.8199 0.624023 13.8199C0.481608 13.8199 0.481608 13.8199 0.481608 13.9598V14.0998C0.481608 14.3796 0.339193 14.7995 0.339193 15.0794C0.339193 15.6391 0.339192 16.1989 0.196777 16.7586C0.196777 16.8986 0.339192 17.0385 0.481608 17.1785C0.624023 17.3184 0.766438 17.3184 0.766438 17.3184C1.05127 17.4584 1.19368 17.4584 1.47851 17.5983C2.47542 17.8782 3.47233 17.8782 4.89648 18.0181C5.32372 18.0181 6.32063 18.0181 6.89029 17.8782C7.8872 17.7382 8.8841 17.3184 9.59618 16.6187C10.4507 15.919 11.0203 15.0794 11.1627 14.0998C11.3052 13.2601 11.1627 12.4205 10.8779 11.5808C10.3083 10.8811 9.88101 10.3214 9.31135 9.76159Z" fill="white"/>
<path d="M122.816 0.390625C122.531 0.530566 122.247 0.530566 122.104 0.530566C121.819 0.530566 121.392 0.530566 121.107 0.530566C119.683 0.530566 118.259 0.530566 116.835 0.530566C115.98 0.530566 115.268 0.530566 114.414 0.530566C113.844 0.530566 113.417 0.530566 112.847 0.530566C112.42 0.530566 111.85 0.530566 111.423 0.530566H111.281L111.138 0.670507C111.138 0.670507 111.138 0.810449 111.281 0.810449H111.423C111.565 0.810449 111.708 0.810449 111.708 0.810449C111.993 0.810449 112.135 0.810449 112.42 0.810449C112.847 0.95039 113.132 1.23027 113.274 1.6501C113.274 1.79004 113.274 1.92998 113.274 1.92998C113.274 2.48974 113.274 2.90957 113.274 3.46933C113.274 6.12822 113.274 8.7871 113.274 11.446C113.274 12.7055 113.274 13.9649 113.132 15.2244C113.132 15.6442 112.99 15.9241 112.99 16.3439C112.99 16.4839 112.847 16.6238 112.847 16.7638C112.705 17.0436 112.562 17.1836 112.278 17.1836C112.135 17.1836 111.85 17.1836 111.708 17.1836H111.565C111.423 17.1836 111.423 17.3235 111.423 17.3235C111.423 17.4635 111.423 17.4635 111.565 17.4635C111.708 17.4635 111.708 17.4635 111.85 17.4635C112.562 17.4635 113.274 17.4635 113.986 17.4635C114.271 17.4635 114.556 17.4635 114.983 17.4635C115.98 17.4635 116.835 17.4635 117.832 17.4635C117.974 17.4635 117.974 17.4635 118.117 17.4635C118.259 17.4635 118.259 17.3235 118.259 17.3235C118.259 17.1836 118.259 17.1836 118.117 17.1836C117.974 17.1836 117.974 17.1836 117.832 17.1836C117.547 17.1836 117.262 17.1836 116.835 17.1836C116.265 17.1836 115.98 16.9037 115.838 16.3439C115.838 16.204 115.838 16.064 115.695 15.9241C115.695 15.0845 115.553 14.2448 115.553 13.4052C115.553 12.1457 115.553 10.7463 115.553 9.48681C115.553 9.34686 115.553 9.34686 115.553 9.20692C115.553 9.06698 115.695 9.06698 115.838 8.92704H115.98C116.977 8.92704 117.832 8.92704 118.829 8.92704C119.113 8.92704 119.541 8.92704 119.826 8.92704C120.11 8.92704 120.395 9.06698 120.68 9.06698C121.25 9.20692 121.677 9.62675 121.677 10.3265C121.677 10.4664 121.677 10.4664 121.677 10.6063L121.819 10.7463C121.962 10.7463 121.962 10.7463 121.962 10.6063C121.962 10.4664 121.962 10.4664 121.962 10.3265C121.962 9.62675 122.104 9.06698 122.104 8.36728C122.389 8.22733 122.389 8.08739 122.389 7.94745C122.389 7.80751 122.389 7.80751 122.389 7.66757C122.389 7.52763 122.247 7.38769 122.104 7.52763C121.962 7.52763 121.962 7.66757 121.962 7.66757C121.819 7.80751 121.535 7.94745 121.392 7.94745C121.25 7.94745 121.107 7.94745 121.107 7.94745C120.68 7.94745 120.11 7.94745 119.683 8.08739C118.686 8.08739 117.689 8.08739 116.692 8.08739C116.55 8.08739 116.408 8.08739 116.123 8.08739C115.838 8.08739 115.695 7.94745 115.695 7.66757C115.695 7.52763 115.695 7.38769 115.695 7.24775C115.695 5.42851 115.695 3.74921 115.695 1.92998C115.695 1.79004 115.695 1.79004 115.695 1.6501C115.695 1.37021 115.838 1.37021 116.123 1.37021H116.265C116.55 1.37021 116.692 1.37021 116.977 1.37021C117.974 1.37021 118.971 1.37021 119.968 1.37021C120.11 1.37021 120.395 1.37021 120.538 1.37021C120.822 1.37021 121.107 1.51016 121.535 1.51016C121.962 1.92998 122.247 2.20986 122.389 2.76963C122.389 2.90957 122.389 2.90957 122.389 3.04951V3.18945C122.531 3.32939 122.674 3.32939 122.674 3.18945L122.816 3.04951C122.816 2.90957 122.816 2.76963 122.816 2.76963C122.816 2.06992 122.816 1.51016 123.101 0.810449V0.670507C123.101 0.390625 123.101 0.390625 122.816 0.390625Z" fill="white"/>
<path d="M160.983 0.523438C160.983 0.523438 160.841 0.523438 160.698 0.523438C160.414 0.523438 160.129 0.523438 159.844 0.523438C159.132 0.523438 158.42 0.523438 157.708 0.523438C157.281 0.523438 156.711 0.523438 156.284 0.523438C156.141 0.523438 156.141 0.523438 155.999 0.523438C155.999 0.523438 155.856 0.523437 155.856 0.663379C155.856 0.663379 155.856 0.80332 155.999 0.80332C156.141 0.80332 156.141 0.80332 156.284 0.943261C156.568 1.0832 156.711 1.22314 156.711 1.50303C156.711 1.64297 156.711 1.78291 156.711 1.78291C156.568 2.06279 156.568 2.34267 156.426 2.48261C155.999 3.18232 153.72 6.54091 153.008 7.66044C152.723 8.08026 152.438 8.50009 152.296 8.77997C152.154 9.05985 152.011 9.05985 151.869 8.77997C151.726 8.64003 151.726 8.50009 151.584 8.36015C151.014 7.66044 150.587 6.82079 150.017 6.12109C149.59 5.42138 147.739 2.7625 147.169 2.06279C147.027 1.92285 146.884 1.64297 146.884 1.50303C146.742 1.22314 146.884 0.943261 147.169 0.943261C147.169 0.943261 147.169 0.943261 147.311 0.943261C147.454 0.943261 147.596 0.80332 147.454 0.663379C147.454 0.523437 147.311 0.523438 147.169 0.523438C146.742 0.523438 146.457 0.523438 146.03 0.523438C145.318 0.523438 144.606 0.523438 143.893 0.523438C143.324 0.523438 142.754 0.523438 142.327 0.523438C142.184 0.523438 142.184 0.523438 142.042 0.523438C141.9 0.523438 141.9 0.523437 141.9 0.663379C141.9 0.80332 141.9 0.80332 142.042 0.80332C142.184 0.80332 142.184 0.80332 142.327 0.80332C142.754 0.80332 143.181 0.943261 143.466 1.22314C143.893 1.50303 144.321 1.78291 144.606 2.20273C145.033 2.7625 145.602 3.4622 146.03 4.02197C146.884 5.1415 147.596 6.26103 148.451 7.38056C148.878 8.08026 149.305 8.64003 149.732 9.33974C150.16 9.8995 150.302 10.4593 150.445 11.159C150.445 11.2989 150.445 13.538 150.445 14.5176C150.445 15.0773 150.445 15.4972 150.445 16.0569C150.445 16.3368 150.445 16.4767 150.302 16.7566C150.16 17.0365 149.875 17.3164 149.448 17.3164C149.305 17.3164 149.163 17.3164 149.02 17.3164H148.878C148.736 17.3164 148.736 17.3164 148.736 17.4563C148.736 17.5963 148.736 17.5963 148.878 17.5963C149.02 17.5963 149.02 17.5963 149.163 17.5963C149.875 17.5963 150.587 17.5963 151.441 17.5963C151.726 17.5963 152.011 17.5963 152.154 17.5963C152.581 17.5963 153.15 17.5963 153.578 17.5963C154.005 17.5963 154.575 17.5963 155.002 17.5963C155.144 17.5963 155.144 17.5963 155.287 17.5963C155.429 17.5963 155.429 17.4563 155.429 17.4563C155.429 17.3164 155.429 17.3164 155.287 17.3164H155.144H155.002C154.717 17.3164 154.432 17.3164 154.147 17.1764C153.578 17.0365 153.293 16.7566 153.15 16.3368C153.15 16.1969 153.15 16.0569 153.15 16.0569C153.15 15.3572 153.008 14.6575 153.008 13.8179C153.008 12.8383 153.008 11.9986 153.008 11.019C153.008 10.4593 153.15 9.8995 153.435 9.33974C153.863 8.77997 154.147 8.22021 154.575 7.66044C155.287 6.54091 156.141 5.42138 156.996 4.30185C157.565 3.60214 157.993 2.90244 158.562 2.20273C158.847 1.92285 159.132 1.50303 159.559 1.36308C159.986 1.0832 160.556 0.80332 161.126 0.80332H161.268H161.411C161.126 0.663379 161.126 0.663379 160.983 0.523438Z" fill="white"/>
<path d="M105.869 0.382129H105.726C105.014 0.52207 104.302 0.52207 103.59 0.52207C100.172 0.52207 96.8966 0.52207 93.4786 0.52207C92.9089 0.52207 92.3393 0.52207 91.6272 0.52207C91.3424 0.52207 91.0575 0.52207 90.9151 0.382129C90.6303 0.382129 90.4879 0.242188 90.203 0.242188C89.9182 0.242188 89.9182 0.242188 89.7758 0.382129C89.7758 0.52207 89.7758 0.52207 89.6334 0.662011C89.491 1.36172 89.3486 2.06142 89.0637 2.76113C89.0637 2.90107 89.0637 2.90107 89.0637 3.04101C89.0637 3.04101 89.0637 3.18095 89.2061 3.18095H89.3486C89.3486 3.18095 89.491 3.04101 89.491 2.90107C89.6334 2.76113 89.6334 2.48125 89.7758 2.34131C89.9182 2.06142 90.203 1.78154 90.4879 1.78154C90.7727 1.6416 90.9151 1.6416 91.1999 1.6416C92.1969 1.50166 93.1938 1.50166 94.1907 1.50166C94.7603 1.50166 95.33 1.50166 95.7572 1.50166C96.1845 1.50166 96.3269 1.6416 96.3269 2.06142C96.3269 6.11972 96.3269 10.178 96.3269 14.2363C96.3269 14.936 96.3269 15.4958 96.1845 16.1955C96.1845 16.4754 96.0421 16.6153 96.0421 16.8952C95.8997 17.1751 95.7572 17.315 95.33 17.455C95.1876 17.455 94.9027 17.455 94.7603 17.455H94.6179C94.4755 17.455 94.4755 17.455 94.4755 17.5949C94.4755 17.7348 94.4755 17.7348 94.6179 17.7348C94.7603 17.7348 94.7603 17.7348 94.9027 17.7348C95.6148 17.7348 96.4693 17.7348 97.1814 17.7348C97.4662 17.7348 97.751 17.7348 98.0359 17.7348C99.0328 17.7348 99.8873 17.7348 100.884 17.7348C101.027 17.7348 101.027 17.7348 101.169 17.7348C101.311 17.7348 101.311 17.5949 101.311 17.5949C101.311 17.455 101.311 17.455 101.169 17.455C101.027 17.455 101.027 17.455 100.884 17.455C100.599 17.455 100.172 17.455 99.8873 17.315C99.46 17.315 99.1752 17.0351 99.0328 16.6153C99.0328 16.4754 98.8904 16.1955 98.8904 16.0555C98.8904 15.3558 98.748 14.6561 98.748 13.9564C98.748 12.2771 98.748 4.44042 98.748 2.06142V1.92148C98.748 1.78154 98.8904 1.6416 99.0328 1.6416C99.0328 1.6416 99.0328 1.6416 99.1752 1.6416C99.8873 1.6416 100.599 1.6416 101.311 1.6416C101.596 1.6416 103.163 1.78154 103.732 1.78154C104.017 1.78154 104.302 1.92148 104.587 2.06142C105.014 2.20136 105.299 2.62119 105.299 3.04101V3.18095V3.3209C105.441 3.46084 105.584 3.46084 105.584 3.3209C105.584 3.18095 105.584 3.18095 105.584 3.04101C105.584 2.76113 105.584 2.62119 105.584 2.34131C105.584 1.78154 105.584 1.22178 105.584 0.801953C105.584 0.662011 105.584 0.662011 105.584 0.52207C106.154 0.382129 106.011 0.382129 105.869 0.382129Z" fill="white"/>
<path d="M141.045 14.6575C140.903 14.6575 140.903 14.6575 140.76 14.7974C140.76 14.9374 140.76 14.9374 140.618 15.0773C140.333 15.917 139.906 16.4767 138.909 16.7566C138.767 16.7566 138.339 16.7566 138.055 16.7566C137.342 16.7566 136.63 16.7566 135.918 16.7566C135.491 16.7566 134.921 16.6167 134.494 16.6167C134.209 16.6167 133.925 16.4767 133.64 16.3368C133.355 16.1969 133.212 15.917 133.07 15.6371C133.07 15.4972 132.928 15.3572 132.928 15.0773C132.785 13.9578 132.785 12.8383 132.785 11.7187C132.785 8.64003 132.785 5.42138 132.785 2.34267C132.785 2.06279 132.785 1.78291 132.928 1.50303C133.07 1.0832 133.212 0.943261 133.64 0.80332C133.782 0.80332 133.782 0.80332 133.925 0.80332C134.067 0.80332 134.209 0.80332 134.494 0.80332H134.637C134.779 0.80332 134.779 0.663379 134.779 0.663379C134.779 0.523437 134.779 0.523438 134.637 0.523438H134.494C133.782 0.523438 132.928 0.523438 132.216 0.523438C131.503 0.523438 130.649 0.523438 129.937 0.523438C129.51 0.523438 128.94 0.523438 128.513 0.523438C128.37 0.523438 128.37 0.523438 128.228 0.523438C128.085 0.523438 128.085 0.663379 128.228 0.80332C128.228 0.80332 128.37 0.80332 128.513 0.80332C128.655 0.80332 128.798 0.80332 128.94 0.80332C129.082 0.80332 129.367 0.80332 129.51 0.80332C129.937 0.80332 130.079 1.0832 130.222 1.36308C130.222 1.64297 130.364 1.78291 130.364 2.06279C130.364 2.48261 130.364 2.7625 130.364 3.18232C130.364 6.68085 130.364 10.1794 130.364 13.538C130.364 14.0977 130.364 14.6575 130.222 15.3572C130.222 15.777 130.079 16.1969 129.937 16.4767C129.794 16.8966 129.652 17.0365 129.225 17.0365C129.082 17.0365 128.94 17.0365 128.798 17.0365H128.655C128.513 17.0365 128.513 17.1764 128.513 17.1764C128.513 17.3164 128.655 17.3164 128.655 17.3164C128.798 17.3164 128.798 17.3164 128.94 17.3164C130.079 17.3164 131.076 17.3164 132.216 17.3164C132.928 17.3164 137.2 17.4563 138.339 17.4563C139.479 17.4563 139.479 17.4563 139.906 17.4563C140.048 17.4563 140.191 17.4563 140.191 17.4563C140.476 17.4563 140.476 17.3164 140.618 17.1764C140.76 17.0365 140.76 16.7566 140.76 16.6167C140.903 16.0569 140.903 15.3572 141.045 14.7974C141.045 14.6575 141.045 14.6575 141.045 14.5176C141.188 14.6575 141.188 14.6575 141.045 14.6575Z" fill="white"/>
<path d="M89.4909 17.3161C89.3484 17.3161 89.3484 17.3161 89.206 17.3161C88.3515 17.3161 87.6395 17.1761 86.9274 16.6164C86.3577 16.3365 85.9305 15.9167 85.5032 15.4968C84.5063 14.5173 83.5094 13.3977 82.5125 12.4181C81.8004 11.5785 81.0884 10.8788 80.3763 10.0391C80.0915 9.75925 80.0915 9.75925 80.3763 9.47937C81.2308 8.77967 81.9429 8.07996 82.5125 6.96043C83.0822 6.12078 83.2246 5.14119 83.0822 4.16161C83.0822 4.02166 83.0822 3.88172 82.9398 3.74178C82.5125 2.34237 81.5156 1.36278 79.949 0.942957C79.237 0.663075 78.3825 0.663075 77.6704 0.523134C76.3887 0.383192 75.1069 0.523134 73.8252 0.523134C72.9707 0.523134 72.1162 0.523134 71.2617 0.523134C70.8345 0.523134 70.2648 0.523134 69.8376 0.523134H69.6951C69.5527 0.523134 69.5527 0.663075 69.5527 0.663075C69.5527 0.803016 69.5527 0.803016 69.6951 0.803016C69.8376 0.803016 69.8376 0.803016 69.98 0.803016C70.2648 0.803016 70.4072 0.803016 70.6921 0.803016C70.8345 0.803016 70.9769 0.803016 71.1193 0.942957C71.4041 1.0829 71.689 1.22284 71.689 1.50272C71.689 1.64266 71.8314 1.7826 71.8314 1.92255C71.8314 2.48231 71.8314 2.90213 71.8314 3.4619C71.8314 5.14119 71.8314 6.96043 71.8314 8.63972C71.8314 10.459 71.8314 12.2782 71.8314 14.0974C71.8314 14.7971 71.8314 15.4968 71.689 16.0566C71.689 16.1966 71.5465 16.3365 71.5465 16.4764C71.4041 16.7563 71.2617 16.8963 70.9769 17.0362C70.8345 17.0362 70.5496 17.0362 70.4072 17.0362C70.2648 17.0362 70.2648 17.0362 70.1224 17.0362L69.98 17.1761C69.98 17.3161 69.98 17.3161 70.1224 17.3161C70.2648 17.3161 70.2648 17.3161 70.4072 17.3161C71.1193 17.3161 71.8314 17.3161 72.5435 17.3161C72.8283 17.3161 73.1131 17.3161 73.5404 17.3161C74.3948 17.3161 75.3918 17.3161 76.2462 17.3161C76.3887 17.3161 76.3887 17.3161 76.5311 17.3161C76.6735 17.3161 76.6735 17.1761 76.6735 17.1761C76.6735 17.0362 76.6735 17.0362 76.5311 17.0362C76.3887 17.0362 76.3887 17.0362 76.2462 17.0362C75.9614 17.0362 75.5342 17.0362 75.2493 16.8963C74.8221 16.7563 74.3948 16.4764 74.3948 16.0566C74.3948 15.9167 74.2524 15.6368 74.2524 15.4968C74.2524 14.6572 74.11 13.9575 74.11 13.1178C74.11 12.2782 74.11 11.4385 74.11 10.459C74.11 10.319 74.11 10.319 74.11 10.1791C74.11 10.0391 74.2524 10.0391 74.3948 9.8992C74.5373 9.8992 74.5373 9.8992 74.6797 9.8992C74.8221 9.8992 75.1069 9.8992 75.2493 9.8992C75.9614 9.8992 76.8159 9.8992 77.528 9.8992C77.8128 9.8992 77.9552 9.8992 78.0976 10.1791C78.2401 10.319 78.3825 10.459 78.3825 10.5989C79.3794 11.7184 80.3763 12.838 81.2308 13.9575C81.8004 14.6572 82.5125 15.3569 83.2246 16.0566C84.0791 16.7563 85.076 17.3161 86.2153 17.3161C87.2122 17.3161 88.2091 17.3161 89.3484 17.3161H89.4909H89.6333C89.7757 17.3161 89.7757 17.1761 89.6333 17.0362C89.6333 17.456 89.4909 17.3161 89.4909 17.3161ZM78.5249 9.47937C77.9552 9.61931 77.3856 9.75925 76.8159 9.61931C76.2462 9.61931 75.6766 9.47937 75.1069 9.47937C74.9645 9.47937 74.6797 9.47937 74.5373 9.33943C74.2524 9.19949 74.11 9.05955 74.11 8.77967C74.11 7.66014 74.11 6.54061 74.11 5.28114C74.11 4.16161 74.11 3.04208 74.11 1.92255V1.7826C74.11 1.64266 74.2524 1.50272 74.3948 1.50272C74.3948 1.50272 74.5373 1.50272 74.6797 1.50272C75.3918 1.36278 76.2462 1.36278 77.1007 1.50272C77.9552 1.64266 78.8097 1.92255 79.5218 2.48231C80.2339 3.04208 80.8035 3.88172 80.9459 4.86131C81.0884 5.56102 81.0884 6.26072 80.9459 6.96043C80.8035 7.66014 80.5187 8.35984 80.0915 8.91961C79.5218 9.05955 79.0945 9.33943 78.5249 9.47937Z" fill="white"/>
</svg>
