<svg width="17" height="23" viewBox="0 0 17 23" fill="none" xmlns="http://www.w3.org/2000/svg">
<path d="M8.47059 0C4.94118 0 2.11765 2.82353 2.11765 6.35294V9.17647C0.917647 9.17647 0 10.0941 0 11.2941V20.4706C0 21.6706 0.917647 22.5882 2.11765 22.5882H14.8235C16.0235 22.5882 16.9412 21.6706 16.9412 20.4706V11.2941C16.9412 10.0941 16.0235 9.17647 14.8235 9.17647V6.35294C14.8235 2.82353 12 0 8.47059 0ZM15.5294 11.2941V20.4706C15.5294 20.8941 15.2471 21.1765 14.8235 21.1765H2.11765C1.69412 21.1765 1.41176 20.8941 1.41176 20.4706V11.2941C1.41176 10.8706 1.69412 10.5882 2.11765 10.5882H2.82353H14.1176H14.8235C15.2471 10.5882 15.5294 10.8706 15.5294 11.2941ZM3.52941 9.17647V6.35294C3.52941 3.6 5.71765 1.41176 8.47059 1.41176C11.2235 1.41176 13.4118 3.6 13.4118 6.35294V9.17647H3.52941Z" fill="black" fill-opacity="0.7"/>
<path d="M8.47055 12.7059C7.27055 12.7059 6.35291 13.6235 6.35291 14.8235C6.35291 15.7412 6.91761 16.5176 7.76467 16.8V18.3529C7.76467 18.7765 8.04702 19.0588 8.47055 19.0588C8.89408 19.0588 9.17643 18.7765 9.17643 18.3529V16.8C10.0235 16.5176 10.5882 15.7412 10.5882 14.8235C10.5882 13.6235 9.67055 12.7059 8.47055 12.7059ZM8.47055 15.5294C8.04702 15.5294 7.76467 15.2471 7.76467 14.8235C7.76467 14.4 8.04702 14.1176 8.47055 14.1176C8.89408 14.1176 9.17643 14.4 9.17643 14.8235C9.17643 15.2471 8.89408 15.5294 8.47055 15.5294Z" fill="black" fill-opacity="0.7"/>
</svg>
