<svg width="25" height="24" viewBox="0 0 25 24" fill="none" xmlns="http://www.w3.org/2000/svg">
<path fill-rule="evenodd" clip-rule="evenodd" d="M12.2153 24C18.8504 24 24.2292 18.6274 24.2292 12C24.2292 5.37258 18.8504 0 12.2153 0C5.58022 0 0.201416 5.37258 0.201416 12C0.201416 18.6274 5.58022 24 12.2153 24Z" fill="white"/>
<path d="M15.2886 4.79994L13.3249 4.79688C11.1187 4.79688 9.69291 6.21875 9.69291 8.41949V10.0898H7.71845C7.54783 10.0898 7.40967 10.2242 7.40967 10.3901V12.8101C7.40967 12.9759 7.54799 13.1102 7.71845 13.1102H9.69291V19.2167C9.69291 19.3826 9.83107 19.5169 10.0017 19.5169H12.5778C12.7484 19.5169 12.8866 19.3824 12.8866 19.2167V13.1102H15.1952C15.3658 13.1102 15.504 12.9759 15.504 12.8101L15.5049 10.3901C15.5049 10.3104 15.4723 10.2342 15.4145 10.1778C15.3567 10.1215 15.2779 10.0898 15.196 10.0898H12.8866V8.67385C12.8866 7.99331 13.0534 7.64783 13.9654 7.64783L15.2883 7.64737C15.4587 7.64737 15.5969 7.51292 15.5969 7.34722V5.10009C15.5969 4.93455 15.4589 4.80024 15.2886 4.79994Z" fill="#062060"/>
</svg>
