<svg width="17" height="23" viewBox="0 0 17 23" fill="none" xmlns="http://www.w3.org/2000/svg">
<path d="M8.47059 0C4.94118 0 2.11765 2.82353 2.11765 6.35294V9.17647C0.917647 9.17647 0 10.0941 0 11.2941V20.4706C0 21.6706 0.917647 22.5882 2.11765 22.5882H14.8235C16.0235 22.5882 16.9412 21.6706 16.9412 20.4706V11.2941C16.9412 10.0941 16.0235 9.17647 14.8235 9.17647V6.35294C14.8235 2.82353 12 0 8.47059 0ZM15.5294 11.2941V20.4706C15.5294 20.8941 15.2471 21.1765 14.8235 21.1765H2.11765C1.69412 21.1765 1.41176 20.8941 1.41176 20.4706V11.2941C1.41176 10.8706 1.69412 10.5882 2.11765 10.5882H2.82353H14.1176H14.8235C15.2471 10.5882 15.5294 10.8706 15.5294 11.2941ZM3.52941 9.17647V6.35294C3.52941 3.6 5.71765 1.41176 8.47059 1.41176C11.2235 1.41176 13.4118 3.6 13.4118 6.35294V9.17647H3.52941Z" fill="#F02323"/>
<path d="M8.47067 12.7059C7.27067 12.7059 6.35303 13.6236 6.35303 14.8236C6.35303 15.7412 6.91773 16.5177 7.76479 16.8V18.353C7.76479 18.7765 8.04715 19.0589 8.47067 19.0589C8.8942 19.0589 9.17656 18.7765 9.17656 18.353V16.8C10.0236 16.5177 10.5883 15.7412 10.5883 14.8236C10.5883 13.6236 9.67067 12.7059 8.47067 12.7059ZM8.47067 15.5295C8.04715 15.5295 7.76479 15.2471 7.76479 14.8236C7.76479 14.4001 8.04715 14.1177 8.47067 14.1177C8.8942 14.1177 9.17656 14.4001 9.17656 14.8236C9.17656 15.2471 8.8942 15.5295 8.47067 15.5295Z" fill="#F02323"/>
</svg>
