<svg width="202" height="19" viewBox="0 0 202 19" fill="none" xmlns="http://www.w3.org/2000/svg">
<path d="M42.7485 17.8099C42.1795 17.8099 41.7527 17.8099 41.326 17.67C41.0415 17.67 40.8992 17.53 40.6147 17.3901C40.3302 17.1102 40.188 16.8303 40.0457 16.5504C39.9035 16.2706 39.9035 15.8507 39.7612 15.4309C39.7612 15.151 39.7612 14.8712 39.619 14.5913C39.4767 13.6117 39.3345 12.6321 39.1922 11.6525C39.05 10.6729 38.9077 9.83327 38.7655 8.85368C38.6232 7.31432 38.3387 5.77497 38.1965 4.23562C38.0542 3.25603 37.912 2.41638 37.7697 1.43679C37.7697 1.29685 37.7697 1.15691 37.7697 1.01697C37.7697 0.877026 37.7697 0.737085 37.6275 0.597143C37.4852 0.457202 37.343 0.457202 37.2007 0.597143L37.0585 0.737085C36.6317 1.57673 36.205 2.27644 35.7782 3.11609C35.2092 4.09567 34.6402 5.2152 34.0712 6.19479C33.2177 7.73415 32.3642 9.2735 31.5107 10.9528C31.0839 11.6525 30.7994 12.3522 30.3727 12.912C30.0882 13.4717 29.8037 14.0315 29.5192 14.5913C29.5192 14.5913 29.5192 14.7312 29.3769 14.7312C29.2347 14.8712 29.0924 14.8712 29.0924 14.7312C28.8079 14.3114 28.5234 13.7516 28.3812 13.3318C27.8122 12.2123 27.1009 11.0927 26.5319 10.1131C25.8207 8.71374 25.1094 7.45426 24.3982 6.19479C23.8292 5.07526 23.1179 3.95573 22.5489 2.8362C22.2644 2.27644 21.8376 1.71667 21.5531 1.15691C21.4109 1.01697 21.2686 0.737085 21.1264 0.597143C20.8419 0.457202 20.6996 0.457202 20.5574 0.597143C20.5574 0.737085 20.4151 0.877026 20.4151 1.01697C20.2729 1.99656 20.1306 2.97614 19.9884 3.95573C19.7039 6.19479 19.4194 8.57379 19.1349 10.8129C18.9926 11.9324 18.8504 13.0519 18.7081 14.1714C18.5659 14.8712 18.5659 15.4309 18.4236 16.1306C18.4236 16.4105 18.2814 16.6904 18.2814 16.9703C18.1391 17.3901 17.8546 17.53 17.4279 17.67C17.2856 17.67 17.0011 17.67 16.8589 17.67C16.7166 17.67 16.7166 17.67 16.5744 17.67C16.4321 17.67 16.4321 17.67 16.4321 17.8099C16.4321 17.9499 16.4321 17.9499 16.5744 17.9499C16.7166 17.9499 16.7166 17.9499 16.8589 17.9499C17.1434 17.9499 17.2856 17.9499 17.5701 17.9499C18.1391 17.9499 18.7081 17.9499 18.9926 17.8099C19.7039 17.8099 20.1306 17.8099 20.5574 17.8099C20.8419 17.8099 21.1264 17.8099 21.4109 17.8099C21.5531 17.8099 21.6954 17.8099 21.6954 17.67C21.8376 17.67 21.8376 17.3901 21.6954 17.3901C21.5531 17.3901 21.5531 17.3901 21.4109 17.3901C21.1264 17.3901 20.8419 17.3901 20.5574 17.2502C20.1306 17.1102 19.9884 16.9703 19.9884 16.5504C19.9884 15.8507 19.9884 15.291 20.1306 14.5913C20.1306 14.0315 20.2729 13.3318 20.2729 12.772C20.2729 12.2123 20.4151 11.6525 20.4151 11.0927C20.5574 10.2531 20.5574 9.41344 20.6996 8.71374C20.8419 7.59421 20.8419 6.61462 20.9841 5.49509V5.35515C20.9841 5.35515 20.9841 5.2152 21.1264 5.2152H21.2686L21.4109 5.35515C21.5531 5.63503 21.6954 5.91491 21.8376 6.19479C22.5489 7.5942 23.2602 8.85368 24.1137 10.2531C24.5404 10.9528 24.9672 11.7924 25.3939 12.4922C25.9629 13.6117 26.6742 14.5913 27.2432 15.7108C27.5277 16.1306 27.8122 16.6904 28.0967 17.1102C28.2389 17.2502 28.2389 17.3901 28.3812 17.53C28.5234 17.67 28.6657 17.67 28.9502 17.53L29.0924 17.3901C29.2347 17.2502 29.3769 16.9703 29.3769 16.8303C30.0882 15.4309 30.9417 14.0315 31.6529 12.6321C32.2219 11.5126 32.9332 10.393 33.5022 9.13356C33.9289 8.43385 34.3557 7.5942 34.6402 6.8945C34.9247 6.33473 35.2092 5.77497 35.4937 5.2152C35.4937 5.2152 35.4937 5.07526 35.6359 5.07526C35.7782 4.93532 35.7782 5.07526 35.9205 5.07526C35.9205 5.2152 35.9205 5.2152 35.9205 5.35515C36.0627 6.33473 36.0627 7.31432 36.205 8.29391C36.3472 9.55338 36.4895 10.8129 36.6317 12.0723C36.774 13.1919 36.9162 14.3114 37.0585 15.4309C37.0585 15.8507 37.2007 16.2706 37.2007 16.5504C37.2007 16.6904 37.2007 16.9703 37.0585 17.1102C36.9162 17.2502 36.9162 17.3901 37.2007 17.53H37.343C37.6275 17.53 37.912 17.53 38.0542 17.53C39.1922 17.53 40.3302 17.67 41.4682 17.67C41.7527 17.67 41.895 17.67 42.1795 17.67C42.3217 17.67 42.3217 17.67 42.464 17.67C42.6062 17.67 42.6062 17.53 42.6062 17.53C43.033 17.8099 42.8907 17.8099 42.7485 17.8099Z" fill="#1D3C86"/>
<path d="M201.358 17.9489H201.215C201.073 17.9489 201.073 17.9489 200.931 17.9489C200.077 17.9489 199.366 17.809 198.655 17.2492C198.086 16.9693 197.659 16.5495 197.232 16.1297C196.237 15.1501 195.241 14.0305 194.245 13.051C193.534 12.2113 192.823 11.5116 192.111 10.672C191.827 10.3921 191.827 10.3921 192.111 10.1122C192.965 9.41248 193.818 8.57283 194.387 7.59324C194.956 6.7536 195.099 5.77401 194.956 4.79442C194.956 4.65448 194.956 4.51454 194.814 4.37459C194.387 2.97518 193.392 1.99559 191.827 1.57577C191.116 1.29589 190.262 1.29589 189.551 1.15595C188.271 1.016 186.99 1.15595 185.71 1.15595C184.857 1.15595 184.003 1.15595 183.15 1.15595C182.723 1.15595 182.154 1.15595 181.727 1.15595H181.585C181.443 1.15595 181.443 1.29589 181.443 1.29589C181.443 1.43583 181.443 1.43583 181.585 1.43583C181.727 1.43583 181.727 1.43583 181.869 1.43583C182.154 1.43583 182.296 1.43583 182.581 1.43583C182.723 1.43583 182.865 1.43583 183.007 1.57577C183.292 1.71571 183.576 1.85565 183.576 2.13553C183.576 2.27548 183.719 2.41542 183.719 2.55536C183.719 3.11512 183.719 3.53495 183.719 4.09471C183.719 5.77401 183.719 7.59324 183.719 9.27254C183.719 11.0918 183.719 12.911 183.719 14.7302C183.719 15.43 183.719 16.1297 183.576 16.6894C183.576 16.8294 183.434 16.9693 183.434 17.1092C183.292 17.3891 183.15 17.5291 182.865 17.669C182.723 17.669 182.438 17.669 182.296 17.669C182.154 17.669 182.154 17.669 182.012 17.669L181.869 17.809C181.869 17.9489 181.869 17.9489 182.012 17.9489C182.154 17.9489 182.154 17.9489 182.296 17.9489C183.007 17.9489 183.719 17.9489 184.43 17.9489C184.714 17.9489 184.999 17.9489 185.426 17.9489C186.279 17.9489 187.275 17.9489 188.128 17.9489C188.271 17.9489 188.271 17.9489 188.413 17.9489C188.555 17.9489 188.555 17.809 188.555 17.809C188.555 17.669 188.555 17.669 188.413 17.669C188.271 17.669 188.271 17.669 188.128 17.669C187.844 17.669 187.417 17.669 187.133 17.5291C186.706 17.3891 186.279 17.1092 186.279 16.6894C186.279 16.5495 186.137 16.2696 186.137 16.1297C186.137 15.29 185.995 14.5903 185.995 13.7507C185.995 12.911 185.995 12.0714 185.995 11.0918C185.995 10.9518 185.995 10.9518 185.995 10.8119C185.995 10.672 186.137 10.672 186.279 10.532C186.421 10.532 186.421 10.532 186.564 10.532C186.706 10.532 186.99 10.532 187.133 10.532C187.844 10.532 188.697 10.532 189.409 10.532C189.693 10.532 189.835 10.532 189.978 10.8119C190.12 10.9518 190.262 11.0918 190.262 11.2317C191.258 12.3512 192.254 13.4708 193.107 14.5903C193.676 15.29 194.387 15.9897 195.099 16.6894C195.952 17.3891 196.948 17.9489 198.086 17.9489C199.082 17.9489 200.077 17.9489 201.215 17.9489H201.358H201.5C201.5 18.0888 201.5 17.9489 201.358 17.9489ZM190.262 9.97224C189.693 10.1122 189.124 10.1122 188.555 10.1122C187.986 10.1122 187.417 9.97224 186.848 9.97224C186.706 9.97224 186.421 9.97224 186.279 9.8323C185.995 9.69236 185.852 9.55242 185.852 9.27254C185.852 8.15301 185.852 7.03348 185.852 5.77401C185.852 4.65448 185.852 3.53495 185.852 2.41542V2.27548C185.852 2.13553 185.995 1.99559 186.137 1.99559C186.137 1.99559 186.279 1.99559 186.421 1.99559C187.133 1.85565 187.986 1.85565 188.84 1.99559C189.693 2.13553 190.547 2.41542 191.258 2.97518C191.969 3.53495 192.538 4.37459 192.68 5.35418C192.823 6.05389 192.823 6.7536 192.68 7.4533C192.538 8.15301 192.254 8.85271 191.827 9.41248C191.258 9.55242 190.831 9.8323 190.262 9.97224Z" fill="#1D3C86"/>
<path d="M66.2197 17.8099C66.0774 17.8099 66.0774 17.8099 65.9352 17.8099C65.0817 17.8099 64.3704 17.53 63.8014 16.8303C63.6592 16.6904 63.5169 16.5504 63.5169 16.4105C63.2324 15.9907 62.9479 15.4309 62.6634 15.0111C62.0944 13.7516 61.5254 12.6321 60.9564 11.3726C60.3874 9.97321 59.6761 8.57379 59.1071 7.17438C58.6804 6.19479 58.2536 5.35515 57.8269 4.37556C57.5424 3.81579 57.4001 3.39597 57.1156 2.8362C56.8311 2.1365 56.4044 1.43679 56.1199 0.737085C56.1199 0.737085 56.1199 0.597143 55.9776 0.597143C55.8354 0.457202 55.5509 0.457202 55.5509 0.597143C55.5509 0.597143 55.5509 0.737085 55.4086 0.737085C55.1241 1.29685 54.8396 1.85661 54.6974 2.41638C54.2706 3.11609 53.9861 3.95573 53.5594 4.65544C53.1326 5.63503 52.7059 6.47468 52.4214 7.45426C51.9946 8.57379 51.4256 9.69332 50.9989 10.8129C50.7144 11.3726 50.4299 12.0723 50.2876 12.6321C50.0031 13.3318 49.7186 14.0315 49.2919 14.7312C49.1496 15.151 48.8651 15.7108 48.7229 16.1306C48.5806 16.4105 48.4384 16.6904 48.1539 16.9703C47.8694 17.3901 47.3004 17.67 46.8736 17.67C46.5891 17.67 46.4468 17.67 46.1623 17.67C46.0201 17.67 46.0201 17.67 45.8778 17.67L45.7356 17.8099C45.7356 17.8099 45.7356 17.9499 45.8778 17.9499C46.0201 17.9499 46.0201 18.0898 46.1623 18.0898C46.4468 18.0898 46.8736 18.0898 47.1581 18.0898C48.1539 18.0898 49.0074 17.9499 50.0031 18.0898C50.4299 18.0898 50.8566 18.0898 51.1411 18.0898C51.2834 18.0898 51.2834 18.0898 51.4256 18.0898C51.5679 18.0898 51.5679 17.9499 51.5679 17.9499C51.5679 17.8099 51.5679 17.8099 51.4256 17.8099C51.2834 17.8099 51.2834 17.8099 51.1411 17.8099C50.9989 17.8099 50.8566 17.8099 50.5721 17.67C50.2876 17.53 50.1454 17.3901 50.1454 17.1102C50.1454 16.9703 50.1454 16.8303 50.2876 16.6904C50.4299 16.1306 50.5721 15.7108 50.8566 15.151C50.9989 14.7312 51.2834 14.1714 51.4256 13.7516C51.5679 13.3318 51.8524 12.772 51.9946 12.3522C52.1369 12.0723 52.1369 11.9324 52.5636 11.9324C52.5636 11.9324 57.8269 11.9324 58.2536 11.9324C58.6804 11.9324 58.6804 12.0723 58.8226 12.3522C58.8226 12.4921 60.3874 15.7108 61.0986 17.2502V17.3901C61.2409 17.67 61.0986 17.67 60.9564 17.8099C60.9564 17.8099 60.8141 17.8099 60.8141 17.9499C60.6719 18.0898 60.6719 18.2297 60.8141 18.2297H60.9564C61.3832 18.2297 61.8099 18.2297 62.3789 18.2297C63.5169 18.2297 64.6549 18.2297 65.7929 18.2297C65.9352 18.2297 65.9352 18.2297 66.0774 18.2297H66.2197C66.3619 18.0898 66.3619 17.9499 66.2197 17.8099C66.3619 17.8099 66.2197 17.8099 66.2197 17.8099ZM57.8269 10.8129C56.9734 10.8129 53.7016 10.8129 52.9904 10.8129C52.5636 10.8129 52.5636 10.8129 52.7059 10.393C52.9904 9.69332 53.4171 8.71374 53.7016 8.01403C53.9861 7.17438 54.4129 6.33473 54.6974 5.35515C54.8396 5.07526 54.8396 4.79538 54.9819 4.5155C54.9819 4.37556 55.1241 4.37556 55.1241 4.23562C55.2664 4.09567 55.4086 4.09567 55.5509 4.23562L55.6931 4.37556C56.4044 5.91491 56.9734 7.45426 57.6846 8.99362C57.8269 9.41344 58.1114 9.97321 58.2536 10.393C58.2536 10.8129 58.2536 10.8129 57.8269 10.8129Z" fill="#1D3C86"/>
<path d="M176.322 15.2876V15.4275C176.322 15.5675 176.322 15.7074 176.322 15.7074C176.18 16.2672 175.895 16.5471 175.468 16.8269C175.184 16.9669 174.899 17.1068 174.473 17.1068C173.477 17.2468 172.339 17.2468 171.343 17.2468C171.059 17.2468 170.632 17.2468 170.347 17.1068C169.778 16.9669 169.352 16.5471 169.209 15.9873C169.209 15.7074 169.209 15.4275 169.209 15.1476C169.209 13.3284 169.209 11.6491 169.209 9.82987V9.68993C169.209 9.54999 169.352 9.41005 169.494 9.41005C169.494 9.41005 171.201 9.41005 172.054 9.41005C172.339 9.41005 172.766 9.41005 173.05 9.41005C173.477 9.41005 173.761 9.54999 174.188 9.54999C174.473 9.68993 174.757 9.82987 174.757 10.2497C174.757 10.3896 174.757 10.5296 174.757 10.6695V10.8095C174.757 10.9494 174.757 10.9494 174.899 10.9494C175.042 10.9494 175.042 10.9494 175.042 10.8095C175.042 10.6695 175.042 10.6695 175.042 10.5296C175.042 10.2497 175.042 9.96981 175.042 9.68993C175.184 9.13017 175.184 8.5704 175.326 8.01064C175.326 7.8707 175.326 7.73075 175.184 7.59081C175.042 7.59081 174.899 7.59081 174.899 7.73075C174.615 8.01064 174.33 8.15058 174.046 8.15058C173.477 8.15058 172.766 8.15058 172.197 8.29052C171.628 8.29052 171.059 8.29052 170.49 8.29052C170.063 8.29052 169.636 8.29052 169.352 8.29052C169.067 8.29052 168.925 8.15058 168.925 7.8707C168.925 7.73075 168.925 7.59081 168.925 7.45087C168.925 5.91152 168.925 4.23222 168.925 2.69287C168.925 2.41299 168.925 2.27305 168.925 1.99316C168.925 1.71328 169.067 1.57334 169.352 1.57334H169.494C170.347 1.57334 171.485 1.57334 172.197 1.57334C172.908 1.57334 173.335 1.71328 174.046 1.85322C174.188 1.85322 174.33 1.85322 174.33 1.99316C174.615 2.1331 174.899 2.41299 174.899 2.69287C174.899 2.83281 174.899 2.97275 174.899 3.11269C174.899 3.25263 174.899 3.25263 174.899 3.39257L175.042 3.53252C175.184 3.53252 175.184 3.53252 175.184 3.39257C175.184 3.25263 175.184 3.25263 175.326 3.11269C175.326 2.97275 175.326 2.69287 175.326 2.55293C175.326 1.99316 175.468 1.57334 175.611 1.01357C175.611 1.01357 175.611 0.873633 175.611 0.733691C175.611 0.59375 175.468 0.59375 175.326 0.59375H175.184C175.042 0.59375 174.899 0.733691 174.757 0.733691C174.188 0.873633 173.619 0.873633 173.05 0.873633C171.201 0.873633 169.352 0.873633 167.36 0.873633C166.791 0.873633 166.222 0.873633 165.653 0.873633C165.226 0.873633 164.8 0.873633 164.373 0.873633C164.231 0.873633 164.088 1.01357 164.088 1.01357C164.088 1.15352 164.231 1.15352 164.373 1.15352C164.515 1.15352 164.657 1.15352 164.942 1.15352C165.084 1.15352 165.369 1.15351 165.511 1.29346C165.795 1.4334 166.08 1.57334 166.222 1.99316C166.222 2.1331 166.364 2.27304 166.364 2.41299C166.364 2.83281 166.507 3.25263 166.507 3.8124C166.507 6.61122 166.507 9.27011 166.507 12.0689C166.507 13.0485 166.507 14.0281 166.507 15.0077C166.507 15.7074 166.364 16.4071 166.222 16.9669C166.222 17.1068 166.222 17.2468 166.08 17.3867C165.938 17.6666 165.795 17.8065 165.511 17.8065C165.369 17.8065 165.226 17.8065 164.942 17.8065C164.8 17.8065 164.8 17.8065 164.657 17.8065C164.515 17.8065 164.515 17.9465 164.515 17.9465C164.515 18.0864 164.657 18.0864 164.8 18.0864C164.942 18.0864 164.942 18.0864 165.084 18.0864C165.795 18.0864 166.507 18.0864 167.36 18.0864C168.214 18.0864 169.209 18.0864 170.063 18.0864C171.343 18.0864 172.481 18.0864 173.761 18.0864H173.904C174.33 18.0864 174.757 18.0864 175.184 18.0864C175.753 18.0864 175.895 17.9465 176.037 17.3867C176.18 16.687 176.18 16.1272 176.322 15.4275C176.322 15.2876 176.322 15.2876 176.322 15.1476C176.464 15.1476 176.322 15.1476 176.322 15.2876Z" fill="#1D3C86"/>
<path d="M9.60403 10.2538C8.75053 9.55407 8.03928 8.9943 7.04352 8.43454C6.33227 8.01471 5.62102 7.59489 4.90977 7.17507C4.48301 6.75524 3.91401 6.47536 3.48726 5.91559C3.20276 5.63571 2.91826 5.21589 2.77601 4.79606C2.34926 3.67653 2.91826 2.557 3.77176 1.99724C4.34076 1.71736 4.90977 1.57742 5.47877 1.43747C6.19002 1.29753 6.75902 1.43747 7.47028 1.43747C8.03928 1.71736 8.60828 1.8573 9.17728 2.13718C9.60403 2.27712 9.74628 2.557 9.88853 2.97683C9.88853 3.25671 10.0308 3.53659 10.0308 3.67653C10.0308 3.81648 10.0308 3.81648 10.173 3.95642C10.173 4.09636 10.3153 4.09636 10.3153 4.09636L10.4575 3.95642C10.4575 3.81648 10.4575 3.81648 10.4575 3.67653C10.4575 3.39665 10.4575 3.11677 10.4575 2.83689C10.4575 2.41706 10.4575 1.99724 10.5998 1.57742C10.5998 1.29753 10.5998 1.15759 10.173 1.15759C10.0308 1.15759 9.88853 1.15759 9.60403 1.15759C9.17728 0.87771 8.60828 0.737768 8.03928 0.737768C7.32802 0.597827 6.61677 0.597827 5.76327 0.737768C4.90977 0.87771 4.05626 1.01765 3.20276 1.29753C2.49151 1.57742 1.92251 1.99724 1.49575 2.557C0.926752 3.39665 0.784501 4.2363 0.784501 5.07595C0.784501 5.91559 1.069 6.6153 1.638 7.31501C1.78025 7.45495 1.92251 7.59489 2.06476 7.73483C2.63376 8.43454 3.34501 8.85436 4.05626 9.41413C4.76752 9.83395 5.47877 10.3937 6.19002 10.8135C6.61677 11.0934 7.18577 11.5132 7.61253 11.7931C8.03928 12.213 8.46603 12.4928 8.75053 12.9127C9.74628 14.3121 9.17728 15.9914 8.03928 16.831C7.47028 17.2508 6.75902 17.3908 6.04777 17.5307C5.47877 17.5307 5.05202 17.5307 4.48301 17.5307C3.77176 17.5307 3.20276 17.3908 2.63376 17.1109C2.06476 16.831 1.638 16.5511 1.3535 15.9914C1.069 15.5715 1.069 15.1517 1.069 14.7319C1.069 14.592 1.069 14.592 1.069 14.452C1.069 14.3121 0.926752 14.3121 0.926752 14.3121C0.784501 14.3121 0.784501 14.3121 0.784501 14.452V14.592C0.784501 14.8718 0.642251 15.2917 0.642251 15.5715C0.642251 16.1313 0.642251 16.6911 0.5 17.2508C0.5 17.3908 0.642251 17.5307 0.784501 17.6707C0.926752 17.8106 1.069 17.8106 1.069 17.8106C1.3535 17.9505 1.49575 17.9505 1.78025 18.0905C2.77601 18.3704 3.77176 18.3704 5.19427 18.5103C5.62102 18.5103 6.61677 18.5103 7.18577 18.3704C8.18153 18.2304 9.17728 17.8106 9.88853 17.1109C10.742 16.4112 11.311 15.5715 11.4533 14.592C11.5955 13.7523 11.4533 12.9127 11.1688 12.073C10.5998 11.3733 10.173 10.8135 9.60403 10.2538Z" fill="#1D3C86"/>
<path d="M122.978 0.875C122.693 1.01494 122.409 1.01494 122.267 1.01494C121.982 1.01494 121.555 1.01494 121.271 1.01494C119.848 1.01494 118.426 1.01494 117.003 1.01494C116.15 1.01494 115.439 1.01494 114.585 1.01494C114.016 1.01494 113.589 1.01494 113.02 1.01494C112.593 1.01494 112.024 1.01494 111.598 1.01494H111.455L111.313 1.15488C111.313 1.15488 111.313 1.29482 111.455 1.29482H111.598C111.74 1.29482 111.882 1.29482 111.882 1.29482C112.167 1.29482 112.309 1.29482 112.593 1.29482C113.02 1.43477 113.305 1.71465 113.447 2.13447C113.447 2.27441 113.447 2.41435 113.447 2.41435C113.447 2.97412 113.447 3.39394 113.447 3.95371C113.447 6.61259 113.447 9.27147 113.447 11.9304C113.447 13.1898 113.447 14.4493 113.305 15.7088C113.305 16.1286 113.162 16.4085 113.162 16.8283C113.162 16.9682 113.02 17.1082 113.02 17.2481C112.878 17.528 112.736 17.6679 112.451 17.6679C112.309 17.6679 112.024 17.6679 111.882 17.6679H111.74C111.598 17.6679 111.598 17.8079 111.598 17.8079C111.598 17.9478 111.598 17.9478 111.74 17.9478C111.882 17.9478 111.882 17.9478 112.024 17.9478C112.736 17.9478 113.447 17.9478 114.158 17.9478C114.443 17.9478 114.727 17.9478 115.154 17.9478C116.15 17.9478 117.003 17.9478 117.999 17.9478C118.141 17.9478 118.141 17.9478 118.284 17.9478C118.426 17.9478 118.426 17.8079 118.426 17.8079C118.426 17.6679 118.426 17.6679 118.284 17.6679C118.141 17.6679 118.141 17.6679 117.999 17.6679C117.715 17.6679 117.43 17.6679 117.003 17.6679C116.434 17.6679 116.15 17.3881 116.008 16.8283C116.008 16.6884 116.008 16.5484 115.865 16.4085C115.865 15.5688 115.723 14.7292 115.723 13.8895C115.723 12.6301 115.723 11.2307 115.723 9.97118C115.723 9.83124 115.723 9.83124 115.723 9.6913C115.723 9.55136 115.865 9.55136 116.008 9.41142H116.15C117.146 9.41142 117.999 9.41142 118.995 9.41142C119.279 9.41142 119.706 9.41142 119.991 9.41142C120.275 9.41142 120.56 9.55136 120.844 9.55136C121.413 9.6913 121.84 10.1111 121.84 10.8108C121.84 10.9508 121.84 10.9508 121.84 11.0907L121.982 11.2307C122.124 11.2307 122.124 11.2307 122.124 11.0907C122.124 10.9508 122.124 10.9508 122.124 10.8108C122.124 10.1111 122.267 9.55136 122.267 8.85165C122.551 8.71171 122.551 8.57177 122.551 8.43183C122.551 8.29189 122.551 8.29189 122.551 8.15194C122.551 8.012 122.409 7.87206 122.267 8.012C122.124 8.012 122.124 8.15194 122.124 8.15194C121.982 8.29189 121.698 8.43183 121.555 8.43183C121.413 8.43183 121.271 8.43183 121.271 8.43183C120.844 8.43183 120.275 8.43183 119.848 8.57177C118.853 8.57177 117.857 8.57177 116.861 8.57177C116.719 8.57177 116.577 8.57177 116.292 8.57177C116.008 8.57177 115.865 8.43183 115.865 8.15194C115.865 8.012 115.865 7.87206 115.865 7.73212C115.865 5.91288 115.865 4.23359 115.865 2.41435C115.865 2.27441 115.865 2.27441 115.865 2.13447C115.865 1.85459 116.008 1.85459 116.292 1.85459H116.434C116.719 1.85459 116.861 1.85459 117.146 1.85459C118.141 1.85459 119.137 1.85459 120.133 1.85459C120.275 1.85459 120.56 1.85459 120.702 1.85459C120.986 1.85459 121.271 1.99453 121.698 1.99453C122.124 2.41435 122.409 2.69424 122.551 3.254C122.551 3.39394 122.551 3.39394 122.551 3.53388V3.67383C122.693 3.81377 122.836 3.81377 122.836 3.67383L122.978 3.53388C122.978 3.39394 122.978 3.254 122.978 3.254C122.978 2.5543 122.978 1.99453 123.262 1.29482V1.15488C123.262 0.875 123.262 0.875 122.978 0.875Z" fill="#1D3C86"/>
<path d="M161.101 1.01562C161.101 1.01562 160.958 1.01562 160.816 1.01562C160.532 1.01562 160.247 1.01562 159.963 1.01562C159.251 1.01562 158.54 1.01562 157.829 1.01562C157.402 1.01562 156.833 1.01562 156.406 1.01562C156.264 1.01562 156.264 1.01562 156.122 1.01562C156.122 1.01562 155.98 1.01562 155.98 1.15557C155.98 1.15557 155.98 1.29551 156.122 1.29551C156.264 1.29551 156.264 1.29551 156.406 1.43545C156.691 1.57539 156.833 1.71533 156.833 1.99521C156.833 2.13515 156.833 2.2751 156.833 2.2751C156.691 2.55498 156.691 2.83486 156.549 2.9748C156.122 3.67451 153.846 7.0331 153.135 8.15263C152.85 8.57245 152.566 8.99228 152.423 9.27216C152.281 9.55204 152.139 9.55204 151.997 9.27216C151.854 9.13222 151.854 8.99228 151.712 8.85233C151.143 8.15263 150.716 7.31298 150.147 6.61327C149.721 5.91357 147.871 3.25468 147.302 2.55498C147.16 2.41504 147.018 2.13515 147.018 1.99521C146.876 1.71533 147.018 1.43545 147.302 1.43545C147.302 1.43545 147.302 1.43545 147.445 1.43545C147.587 1.43545 147.729 1.29551 147.587 1.15557C147.587 1.01562 147.445 1.01562 147.302 1.01562C146.876 1.01562 146.591 1.01562 146.164 1.01562C145.453 1.01562 144.742 1.01562 144.031 1.01562C143.462 1.01562 142.893 1.01562 142.466 1.01562C142.324 1.01562 142.324 1.01562 142.181 1.01562C142.039 1.01562 142.039 1.01562 142.039 1.15557C142.039 1.29551 142.039 1.29551 142.181 1.29551C142.324 1.29551 142.324 1.29551 142.466 1.29551C142.893 1.29551 143.319 1.43545 143.604 1.71533C144.031 1.99521 144.457 2.2751 144.742 2.69492C145.169 3.25468 145.738 3.95439 146.164 4.51416C147.018 5.63369 147.729 6.75322 148.583 7.87275C149.009 8.57245 149.436 9.13222 149.863 9.83192C150.29 10.3917 150.432 10.9515 150.574 11.6512C150.574 11.7911 150.574 14.0302 150.574 15.0097C150.574 15.5695 150.574 15.9893 150.574 16.5491C150.574 16.829 150.574 16.9689 150.432 17.2488C150.29 17.5287 150.005 17.8086 149.578 17.8086C149.436 17.8086 149.294 17.8086 149.152 17.8086H149.009C148.867 17.8086 148.867 17.8086 148.867 17.9485C148.867 18.0885 148.867 18.0885 149.009 18.0885C149.152 18.0885 149.152 18.0885 149.294 18.0885C150.005 18.0885 150.716 18.0885 151.57 18.0885C151.854 18.0885 152.139 18.0885 152.281 18.0885C152.708 18.0885 153.277 18.0885 153.704 18.0885C154.13 18.0885 154.699 18.0885 155.126 18.0885C155.268 18.0885 155.268 18.0885 155.411 18.0885C155.553 18.0885 155.553 17.9485 155.553 17.9485C155.553 17.8086 155.553 17.8086 155.411 17.8086H155.268H155.126C154.842 17.8086 154.557 17.8086 154.273 17.6686C153.704 17.5287 153.419 17.2488 153.277 16.829C153.277 16.689 153.277 16.5491 153.277 16.5491C153.277 15.8494 153.135 15.1497 153.135 14.31C153.135 13.3305 153.135 12.4908 153.135 11.5112C153.135 10.9515 153.277 10.3917 153.561 9.83192C153.988 9.27216 154.273 8.71239 154.699 8.15263C155.411 7.0331 156.264 5.91357 157.118 4.79404C157.687 4.09433 158.113 3.39463 158.682 2.69492C158.967 2.41504 159.251 1.99521 159.678 1.85527C160.105 1.57539 160.674 1.29551 161.243 1.29551H161.385H161.527C161.243 1.15557 161.243 1.15557 161.101 1.01562Z" fill="#1D3C86"/>
<path d="M106.05 0.874316H105.907C105.196 1.01426 104.485 1.01426 103.774 1.01426C100.36 1.01426 97.0879 1.01426 93.6739 1.01426C93.1049 1.01426 92.5359 1.01426 91.8247 1.01426C91.5402 1.01426 91.2557 1.01426 91.1134 0.874316C90.8289 0.874316 90.6867 0.734375 90.4022 0.734375C90.1177 0.734375 90.1177 0.734375 89.9754 0.874316C89.9754 1.01426 89.9754 1.01426 89.8332 1.1542C89.6909 1.85391 89.5487 2.55361 89.2642 3.25332C89.2642 3.39326 89.2642 3.39326 89.2642 3.5332C89.2642 3.5332 89.2642 3.67314 89.4064 3.67314H89.5487C89.5487 3.67314 89.6909 3.5332 89.6909 3.39326C89.8332 3.25332 89.8332 2.97343 89.9754 2.83349C90.1177 2.55361 90.4022 2.27373 90.6867 2.27373C90.9712 2.13379 91.1134 2.13379 91.3979 2.13379C92.3937 1.99385 93.3894 1.99385 94.3852 1.99385C94.9542 1.99385 95.5232 1.99385 95.9499 1.99385C96.3767 1.99385 96.5189 2.13379 96.5189 2.55361C96.5189 6.61191 96.5189 10.6702 96.5189 14.7285C96.5189 15.4282 96.5189 15.988 96.3767 16.6877C96.3767 16.9676 96.2344 17.1075 96.2344 17.3874C96.0922 17.6673 95.9499 17.8072 95.5232 17.9471C95.3809 17.9471 95.0964 17.9471 94.9542 17.9471H94.8119C94.6697 17.9471 94.6697 17.9471 94.6697 18.0871C94.6697 18.227 94.6697 18.227 94.8119 18.227C94.9542 18.227 94.9542 18.227 95.0964 18.227C95.8077 18.227 96.6612 18.227 97.3724 18.227C97.6569 18.227 97.9414 18.227 98.2259 18.227C99.2217 18.227 100.075 18.227 101.071 18.227C101.213 18.227 101.213 18.227 101.355 18.227C101.498 18.227 101.498 18.0871 101.498 18.0871C101.498 17.9471 101.498 17.9471 101.355 17.9471C101.213 17.9471 101.213 17.9471 101.071 17.9471C100.786 17.9471 100.36 17.9471 100.075 17.8072C99.6484 17.8072 99.3639 17.5273 99.2217 17.1075C99.2217 16.9676 99.0794 16.6877 99.0794 16.5477C99.0794 15.848 98.9372 15.1483 98.9372 14.4486C98.9372 12.7693 98.9372 4.93261 98.9372 2.55361V2.41367C98.9372 2.27373 99.0794 2.13379 99.2217 2.13379C99.2217 2.13379 99.2217 2.13379 99.3639 2.13379C100.075 2.13379 100.786 2.13379 101.498 2.13379C101.782 2.13379 103.347 2.27373 103.916 2.27373C104.2 2.27373 104.485 2.41367 104.769 2.55361C105.196 2.69355 105.481 3.11338 105.481 3.5332V3.67314V3.81308C105.623 3.95302 105.765 3.95302 105.765 3.81308C105.765 3.67314 105.765 3.67314 105.765 3.5332C105.765 3.25332 105.765 3.11338 105.765 2.83349C105.765 2.27373 105.765 1.71396 105.765 1.29414C105.765 1.1542 105.765 1.1542 105.765 1.01426C106.334 0.874316 106.192 0.874316 106.05 0.874316Z" fill="#1D3C86"/>
<path d="M141.186 15.1497C141.043 15.1497 141.043 15.1497 140.901 15.2896C140.901 15.4296 140.901 15.4296 140.759 15.5695C140.474 16.4092 140.048 16.9689 139.052 17.2488C138.91 17.2488 138.483 17.2488 138.198 17.2488C137.487 17.2488 136.776 17.2488 136.065 17.2488C135.638 17.2488 135.069 17.1089 134.642 17.1089C134.358 17.1089 134.073 16.9689 133.789 16.829C133.504 16.689 133.362 16.4092 133.22 16.1293C133.22 15.9893 133.077 15.8494 133.077 15.5695C132.935 14.45 132.935 13.3305 132.935 12.2109C132.935 9.13222 132.935 5.91357 132.935 2.83486C132.935 2.55498 132.935 2.2751 133.077 1.99521C133.22 1.57539 133.362 1.43545 133.789 1.29551C133.931 1.29551 133.931 1.29551 134.073 1.29551C134.215 1.29551 134.358 1.29551 134.642 1.29551H134.784C134.927 1.29551 134.927 1.15557 134.927 1.15557C134.927 1.01562 134.927 1.01562 134.784 1.01562H134.642C133.931 1.01562 133.077 1.01562 132.366 1.01562C131.655 1.01562 130.801 1.01562 130.09 1.01562C129.663 1.01562 129.094 1.01562 128.668 1.01562C128.525 1.01562 128.525 1.01562 128.383 1.01562C128.241 1.01562 128.241 1.15557 128.383 1.29551C128.383 1.29551 128.525 1.29551 128.668 1.29551C128.81 1.29551 128.952 1.29551 129.094 1.29551C129.237 1.29551 129.521 1.29551 129.663 1.29551C130.09 1.29551 130.232 1.57539 130.375 1.85527C130.375 2.13515 130.517 2.2751 130.517 2.55498C130.517 2.9748 130.517 3.25468 130.517 3.67451C130.517 7.17304 130.517 10.6716 130.517 14.0302C130.517 14.5899 130.517 15.1497 130.375 15.8494C130.375 16.2692 130.232 16.689 130.09 16.9689C129.948 17.3888 129.806 17.5287 129.379 17.5287C129.237 17.5287 129.094 17.5287 128.952 17.5287H128.81C128.668 17.5287 128.668 17.6686 128.668 17.6686C128.668 17.8086 128.81 17.8086 128.81 17.8086C128.952 17.8086 128.952 17.8086 129.094 17.8086C130.232 17.8086 131.228 17.8086 132.366 17.8086C133.077 17.8086 137.345 17.9485 138.483 17.9485C139.621 17.9485 139.621 17.9485 140.048 17.9485C140.19 17.9485 140.332 17.9485 140.332 17.9485C140.617 17.9485 140.617 17.8086 140.759 17.6686C140.901 17.5287 140.901 17.2488 140.901 17.1089C141.043 16.5491 141.043 15.8494 141.186 15.2896C141.186 15.1497 141.186 15.1497 141.186 15.0097C141.328 15.1497 141.328 15.1497 141.186 15.1497Z" fill="#1D3C86"/>
<path d="M89.691 17.8083C89.5487 17.8083 89.5487 17.8083 89.4065 17.8083C88.5529 17.8083 87.8417 17.6683 87.1304 17.1086C86.5614 16.8287 86.1347 16.4089 85.7079 15.989C84.7122 15.0094 83.7164 13.8899 82.7207 12.9103C82.0094 12.0707 81.2982 11.371 80.5869 10.5313C80.3024 10.2514 80.3024 10.2514 80.5869 9.97156C81.4404 9.27185 82.1517 8.57215 82.7207 7.45262C83.2897 6.61297 83.4319 5.63338 83.2897 4.65379C83.2897 4.51385 83.2897 4.37391 83.1474 4.23397C82.7207 2.83456 81.7249 1.85497 80.1602 1.43514C79.4489 1.15526 78.5954 1.15526 77.8842 1.01532C76.6039 0.87538 75.3236 1.01532 74.0434 1.01532C73.1899 1.01532 72.3364 1.01532 71.4829 1.01532C71.0561 1.01532 70.4871 1.01532 70.0604 1.01532H69.9181C69.7759 1.01532 69.7759 1.15526 69.7759 1.15526C69.7759 1.2952 69.7759 1.2952 69.9181 1.2952C70.0604 1.2952 70.0604 1.2952 70.2026 1.2952C70.4871 1.2952 70.6294 1.2952 70.9139 1.2952C71.0561 1.2952 71.1984 1.2952 71.3406 1.43514C71.6251 1.57509 71.9096 1.71503 71.9096 1.99491C71.9096 2.13485 72.0519 2.27479 72.0519 2.41473C72.0519 2.9745 72.0519 3.39432 72.0519 3.95409C72.0519 5.63338 72.0519 7.45262 72.0519 9.13191C72.0519 10.9511 72.0519 12.7704 72.0519 14.5896C72.0519 15.2893 72.0519 15.989 71.9096 16.5488C71.9096 16.6887 71.7674 16.8287 71.7674 16.9686C71.6251 17.2485 71.4829 17.3884 71.1984 17.5284C71.0561 17.5284 70.7716 17.5284 70.6294 17.5284C70.4871 17.5284 70.4871 17.5284 70.3449 17.5284L70.2026 17.6683C70.2026 17.8083 70.2026 17.8083 70.3449 17.8083C70.4871 17.8083 70.4871 17.8083 70.6294 17.8083C71.3406 17.8083 72.0519 17.8083 72.7631 17.8083C73.0476 17.8083 73.3321 17.8083 73.7589 17.8083C74.6124 17.8083 75.6081 17.8083 76.4616 17.8083C76.6039 17.8083 76.6039 17.8083 76.7462 17.8083C76.8884 17.8083 76.8884 17.6683 76.8884 17.6683C76.8884 17.5284 76.8884 17.5284 76.7462 17.5284C76.6039 17.5284 76.6039 17.5284 76.4616 17.5284C76.1771 17.5284 75.7504 17.5284 75.4659 17.3884C75.0391 17.2485 74.6124 16.9686 74.6124 16.5488C74.6124 16.4089 74.4701 16.129 74.4701 15.989C74.4701 15.1494 74.3279 14.4497 74.3279 13.61C74.3279 12.7704 74.3279 11.9307 74.3279 10.9511C74.3279 10.8112 74.3279 10.8112 74.3279 10.6713C74.3279 10.5313 74.4701 10.5313 74.6124 10.3914C74.7546 10.3914 74.7546 10.3914 74.8969 10.3914C75.0391 10.3914 75.3236 10.3914 75.4659 10.3914C76.1772 10.3914 77.0307 10.3914 77.7419 10.3914C78.0264 10.3914 78.1687 10.3914 78.3109 10.6713C78.4532 10.8112 78.5954 10.9511 78.5954 11.0911C79.5912 12.2106 80.5869 13.3301 81.4404 14.4497C82.0094 15.1494 82.7207 15.8491 83.4319 16.5488C84.2854 17.2485 85.2812 17.8083 86.4192 17.8083C87.4149 17.8083 88.4107 17.8083 89.5487 17.8083H89.691H89.8332C89.9755 17.8083 89.9755 17.6683 89.8332 17.5284C89.8332 17.9482 89.691 17.8083 89.691 17.8083ZM78.7377 9.97156C78.1687 10.1115 77.5997 10.2514 77.0307 10.1115C76.4617 10.1115 75.8926 9.97156 75.3236 9.97156C75.1814 9.97156 74.8969 9.97156 74.7546 9.83162C74.4701 9.69168 74.3279 9.55174 74.3279 9.27185C74.3279 8.15232 74.3279 7.03279 74.3279 5.77332C74.3279 4.65379 74.3279 3.53426 74.3279 2.41473V2.27479C74.3279 2.13485 74.4701 1.99491 74.6124 1.99491C74.6124 1.99491 74.7546 1.99491 74.8969 1.99491C75.6081 1.85497 76.4617 1.85497 77.3152 1.99491C78.1687 2.13485 79.0222 2.41473 79.7334 2.9745C80.4447 3.53426 81.0137 4.37391 81.1559 5.3535C81.2982 6.05321 81.2982 6.75291 81.1559 7.45262C81.0137 8.15232 80.7292 8.85203 80.3024 9.41179C79.7334 9.55174 79.3067 9.83162 78.7377 9.97156Z" fill="#1D3C86"/>
</svg>
