<svg width="24" height="24" viewBox="0 0 24 24" fill="none" xmlns="http://www.w3.org/2000/svg">
<path fill-rule="evenodd" clip-rule="evenodd" d="M12 24C18.6274 24 24 18.6274 24 12C24 5.37258 18.6274 0 12 0C5.37258 0 0 5.37258 0 12C0 18.6274 5.37258 24 12 24Z" fill="white"/>
<path d="M12.2008 5C8.15278 5 6 7.59405 6 10.4226C6 11.7344 6.73298 13.3702 7.9063 13.889C8.08447 13.9693 8.1814 13.9352 8.22109 13.7699C8.25617 13.6444 8.41034 13.0397 8.48511 12.7544C8.50819 12.6631 8.49619 12.5837 8.42234 12.4978C8.03277 12.0473 7.72352 11.2266 7.72352 10.4567C7.72352 8.48396 9.29195 6.56843 11.9608 6.56843C14.2686 6.56843 15.8832 8.06762 15.8832 10.2121C15.8832 12.6354 14.601 14.3118 12.9347 14.3118C12.0125 14.3118 11.3256 13.588 11.5435 12.6926C11.8066 11.6264 12.3226 10.4798 12.3226 9.71082C12.3226 9.02123 11.9331 8.45073 11.1373 8.45073C10.1985 8.45073 9.43688 9.38034 9.43688 10.6284C9.43688 11.4214 9.71752 11.9568 9.71752 11.9568C9.71752 11.9568 8.78883 15.7085 8.6162 16.4092C8.32449 17.5954 8.6559 19.5165 8.68451 19.6817C8.70205 19.7731 8.80452 19.8018 8.86176 19.727C8.95315 19.607 10.0757 18.0053 10.3905 16.8477C10.505 16.4258 10.9748 14.7152 10.9748 14.7152C11.2841 15.2737 12.1768 15.7418 13.1276 15.7418C15.9562 15.7418 18 13.2557 18 10.1706C17.9898 7.21279 15.4586 5 12.2008 5Z" fill="#062060"/>
</svg>
