<svg width="25" height="24" viewBox="0 0 25 24" fill="none" xmlns="http://www.w3.org/2000/svg">
<path fill-rule="evenodd" clip-rule="evenodd" d="M12.2639 24C18.899 24 24.2778 18.6274 24.2778 12C24.2778 5.37258 18.899 0 12.2639 0C5.6288 0 0.25 5.37258 0.25 12C0.25 18.6274 5.6288 24 12.2639 24Z" fill="white"/>
<path d="M19.4722 7.71737C18.9711 7.94118 18.4333 8.09297 17.8684 8.16074C18.4452 7.81256 18.8868 7.26029 19.0961 6.60425C18.555 6.92669 17.9577 7.16082 17.3213 7.28774C16.8116 6.73976 16.0867 6.39844 15.2827 6.39844C13.7402 6.39844 12.4894 7.65906 12.4894 9.21298C12.4894 9.43336 12.5141 9.64861 12.5618 9.85445C10.2407 9.73694 8.18258 8.61611 6.8051 6.91296C6.56431 7.32804 6.42733 7.81168 6.42733 8.32796C6.42733 9.30474 6.92081 10.1666 7.66954 10.6708C7.21179 10.6554 6.78127 10.5285 6.40437 10.3175V10.3527C6.40437 11.7162 7.36751 12.8542 8.64458 13.1132C8.4106 13.1767 8.16387 13.2118 7.90862 13.2118C7.72826 13.2118 7.55383 13.1938 7.38281 13.1595C7.73845 14.2786 8.76966 15.0924 9.99145 15.1148C9.03597 15.8694 7.8312 16.3179 6.52264 16.3179C6.29718 16.3179 6.0751 16.3042 5.85645 16.2793C7.0927 17.0795 8.56038 17.546 10.1378 17.546C15.2759 17.546 18.0845 13.2564 18.0845 9.53629L18.0751 9.17183C18.6239 8.77732 19.0987 8.28165 19.4722 7.71737Z" fill="#062060"/>
</svg>
